<?xml version="1.0" encoding="UTF-8"?>
<svg width="18px" height="18px" viewBox="0 0 18 18" version="1.1" xmlns="http://www.w3.org/2000/svg">
    <g stroke="none" stroke-width="1" fill="none" fill-rule="evenodd">
        <path d="M15.2773,14.3666667 C14.925,15.1444444 14.5273,15.8555556 13.9841,16.6111111 C13.2273,17.6333333 12.6,18.15 11.7545,18.15 C11.0932,18.15 10.5727,17.9222222 10.1932,17.4666667 C9.81364,17.0111111 9.45,16.7833333 9.10227,16.7833333 C8.77727,16.7833333 8.42727,17.0111111 8.02227,17.4666667 C7.61727,17.9222222 7.11364,18.15 6.51136,18.15 C5.70682,18.15 5.07955,17.6333333 4.62955,16.6111111 C3.96136,15.3777778 3.62727,14.1666667 3.62727,12.9777778 C3.62727,11.8777778 3.87273,10.9444444 4.36364,10.1777778 C4.85455,9.41111111 5.51591,9.02777778 6.34773,9.02777778 C6.73636,9.02777778 7.07045,9.15555556 7.35,9.41111111 C7.62955,9.66666667 7.94318,9.79444444 8.29318,9.79444444 C8.62955,9.79444444 8.95455,9.66666667 9.26818,9.41111111 C9.58182,9.15555556 9.95455,9.02777778 10.3841,9.02777778 C11.1,9.02777778 11.7136,9.35 12.2318,9.99444444 C11.5636,10.4277778 11.0591,10.9666667 10.7182,11.6111111 C10.3773,12.2555556 10.2068,12.9444444 10.2068,13.6777778 C10.2068,14.4777778 10.3932,15.2111111 10.7659,15.8777778 C11.1386,16.5444444 11.6409,17 12.2727,17.2444444 C11.9727,16.3111111 11.8227,15.3555556 11.8227,14.3666667 C11.8227,13.4666667 12.0136,12.6333333 12.3955,11.8666667 C12.7773,11.1 13.2682,10.5222222 13.8682,10.1333333 C14.3045,10.9888889 14.6227,11.8888889 14.8227,12.8333333 C15.0227,13.7777778 15.1227,14.1 15.2773,14.3666667 Z M10.7659,4.63333333 C10.7659,5.31111111 10.5318,5.94444444 10.0636,6.53333333 C9.59545,7.12222222 9.03409,7.45555556 8.37727,7.53333333 C8.37727,7.45555556 8.38864,7.37777778 8.38864,7.3 C8.38864,6.65555556 8.65682,5.97777778 9.12273,5.34444444 C9.35591,5.02777778 9.65455,4.75555556 10.0182,4.52777778 C10.3818,4.31111111 10.7318,4.17222222 11.0682,4.11111111 C11.0818,4.28888889 11.0955,4.46666667 11.0955,4.63333333 L10.7659,4.63333333 Z" fill="#FFFFFF" transform="translate(0, -4)"></path>
    </g>
</svg> 