<?xml version="1.0" encoding="UTF-8"?>
<svg width="18px" height="18px" viewBox="0 0 18 18" version="1.1" xmlns="http://www.w3.org/2000/svg">
    <g stroke="none" stroke-width="1" fill="none" fill-rule="evenodd">
        <path d="M17.0062,0 L0.9938,0 C0.44495,0 0,0.44495 0,0.9938 L0,17.0062 C0,17.55505 0.44495,18 0.9938,18 L9.615,18 L9.615,11.0325 L7.269,11.0325 L7.269,8.31 L9.615,8.31 L9.615,6.3135 C9.615,3.9915 11.0385,2.727 13.1175,2.727 C14.1075,2.727 14.9655,2.79 15.2055,2.8215 L15.2055,5.2515 L13.7745,5.2515 C12.657,5.2515 12.4425,5.772 12.4425,6.5445 L12.4425,8.31 L15.1245,8.31 L14.7825,11.0325 L12.4425,11.0325 L12.4425,18 L17.0062,18 C17.55505,18 18,17.55505 18,17.0062 L18,0.9938 C18,0.44495 17.55505,0 17.0062,0" fill="#FFFFFF"></path>
    </g>
</svg> 